<?xml version="1.0" encoding="UTF-8" standalone="no"?>
<!DOCTYPE svg PUBLIC "-//W3C//DTD SVG 1.1//EN"
 "http://www.w3.org/Graphics/SVG/1.1/DTD/svg11.dtd">
<!-- Generated by graphviz version 2.38.0 (20140413.2041)
 -->
<!-- Title: controllers_diagram Pages: 1 -->
<svg width="504pt" height="503pt"
 viewBox="0.00 0.00 503.82 503.00" xmlns="http://www.w3.org/2000/svg" xmlns:xlink="http://www.w3.org/1999/xlink">
<g id="graph0" class="graph" transform="scale(1 1) rotate(0) translate(213.714 289.5)">
<title>controllers_diagram</title>
<polygon fill="white" stroke="none" points="-213.714,213.5 -213.714,-289.5 290.104,-289.5 290.104,213.5 -213.714,213.5"/>
<!-- _diagram_info -->
<g id="node1" class="node"><title>_diagram_info</title>
<text text-anchor="start" x="83.3123" y="-134.1" font-family="Times,serif" font-size="13.00">Controllers diagram</text>
<text text-anchor="start" x="83.3123" y="-121.1" font-family="Times,serif" font-size="13.00">Date: Jan 10 2015 &#45; 00:34</text>
<text text-anchor="start" x="83.3123" y="-108.1" font-family="Times,serif" font-size="13.00">Migration version: 20141229193757</text>
<text text-anchor="start" x="83.3123" y="-95.1" font-family="Times,serif" font-size="13.00">Generated by RailRoady 1.3.0</text>
<text text-anchor="start" x="83.3123" y="-82.1" font-family="Times,serif" font-size="13.00">http://railroady.prestonlee.com</text>
</g>
<!-- ApplicationController -->
<g id="node2" class="node"><title>ApplicationController</title>
<path fill="none" stroke="black" d="M-92.6484,-106C-92.6484,-106 34.6484,-106 34.6484,-106 40.6484,-106 46.6484,-112 46.6484,-118 46.6484,-118 46.6484,-212 46.6484,-212 46.6484,-218 40.6484,-224 34.6484,-224 34.6484,-224 -92.6484,-224 -92.6484,-224 -98.6484,-224 -104.648,-218 -104.648,-212 -104.648,-212 -104.648,-118 -104.648,-118 -104.648,-112 -98.6484,-106 -92.6484,-106"/>
<text text-anchor="middle" x="-29" y="-208.8" font-family="Times,serif" font-size="14.00">ApplicationController</text>
<polyline fill="none" stroke="black" points="-104.648,-202 46.6484,-202 "/>
<text text-anchor="start" x="-96.6484" y="-186.8" font-family="Times,serif" font-size="14.00">after_sign_in_path_for</text>
<text text-anchor="start" x="-96.6484" y="-172.8" font-family="Times,serif" font-size="14.00">after_sign_out_path_for</text>
<text text-anchor="start" x="-96.6484" y="-158.8" font-family="Times,serif" font-size="14.00">authenticate_user!</text>
<polyline fill="none" stroke="black" points="-104.648,-152 46.6484,-152 "/>
<polyline fill="none" stroke="black" points="-104.648,-128 46.6484,-128 "/>
<text text-anchor="start" x="-96.6484" y="-112.8" font-family="Times,serif" font-size="14.00">_layout</text>
</g>
<!-- ErrorsController -->
<g id="node3" class="node"><title>ErrorsController</title>
<path fill="none" stroke="black" d="M11.7344,179C11.7344,179 96.2656,179 96.2656,179 102.266,179 108.266,173 108.266,167 108.266,167 108.266,101 108.266,101 108.266,95 102.266,89 96.2656,89 96.2656,89 11.7344,89 11.7344,89 5.73438,89 -0.265625,95 -0.265625,101 -0.265625,101 -0.265625,167 -0.265625,167 -0.265625,173 5.73438,179 11.7344,179"/>
<text text-anchor="middle" x="54" y="104.2" font-family="Times,serif" font-size="14.00">ErrorsController</text>
<polyline fill="none" stroke="black" points="-0.265625,111 108.266,111 "/>
<text text-anchor="start" x="7.73438" y="126.2" font-family="Times,serif" font-size="14.00">error404</text>
<polyline fill="none" stroke="black" points="-0.265625,133 108.266,133 "/>
<polyline fill="none" stroke="black" points="-0.265625,157 108.266,157 "/>
<text text-anchor="start" x="7.73438" y="172.2" font-family="Times,serif" font-size="14.00">_layout</text>
</g>
<!-- FollowersController -->
<g id="node4" class="node"><title>FollowersController</title>
<path fill="none" stroke="black" d="M147.228,134C147.228,134 252.772,134 252.772,134 258.772,134 264.772,128 264.772,122 264.772,122 264.772,56 264.772,56 264.772,50 258.772,44 252.772,44 252.772,44 147.228,44 147.228,44 141.228,44 135.228,50 135.228,56 135.228,56 135.228,122 135.228,122 135.228,128 141.228,134 147.228,134"/>
<text text-anchor="middle" x="200" y="59.2" font-family="Times,serif" font-size="14.00">FollowersController</text>
<polyline fill="none" stroke="black" points="135.228,66 264.772,66 "/>
<text text-anchor="start" x="143.228" y="81.2" font-family="Times,serif" font-size="14.00">fetch_followers</text>
<polyline fill="none" stroke="black" points="135.228,88 264.772,88 "/>
<polyline fill="none" stroke="black" points="135.228,112 264.772,112 "/>
<text text-anchor="start" x="143.228" y="127.2" font-family="Times,serif" font-size="14.00">_layout</text>
</g>
<!-- PagesController -->
<g id="node5" class="node"><title>PagesController</title>
<path fill="none" stroke="black" d="M191.896,-181C191.896,-181 274.104,-181 274.104,-181 280.104,-181 286.104,-187 286.104,-193 286.104,-193 286.104,-273 286.104,-273 286.104,-279 280.104,-285 274.104,-285 274.104,-285 191.896,-285 191.896,-285 185.896,-285 179.896,-279 179.896,-273 179.896,-273 179.896,-193 179.896,-193 179.896,-187 185.896,-181 191.896,-181"/>
<text text-anchor="middle" x="233" y="-269.8" font-family="Times,serif" font-size="14.00">PagesController</text>
<polyline fill="none" stroke="black" points="179.896,-263 286.104,-263 "/>
<text text-anchor="start" x="187.896" y="-247.8" font-family="Times,serif" font-size="14.00">dashboard</text>
<text text-anchor="start" x="187.896" y="-233.8" font-family="Times,serif" font-size="14.00">homepage</text>
<polyline fill="none" stroke="black" points="179.896,-227 286.104,-227 "/>
<polyline fill="none" stroke="black" points="179.896,-203 286.104,-203 "/>
<text text-anchor="start" x="187.896" y="-187.8" font-family="Times,serif" font-size="14.00">_layout</text>
</g>
<!-- Users::OmniauthCallbacksController -->
<g id="node6" class="node"><title>Users::OmniauthCallbacksController</title>
<path fill="none" stroke="black" d="M-108.204,59C-108.204,59 92.2036,59 92.2036,59 98.2036,59 104.204,53 104.204,47 104.204,47 104.204,-33 104.204,-33 104.204,-39 98.2036,-45 92.2036,-45 92.2036,-45 -108.204,-45 -108.204,-45 -114.204,-45 -120.204,-39 -120.204,-33 -120.204,-33 -120.204,47 -120.204,47 -120.204,53 -114.204,59 -108.204,59"/>
<text text-anchor="middle" x="-8" y="-29.8" font-family="Times,serif" font-size="14.00">Users::OmniauthCallbacksController</text>
<polyline fill="none" stroke="black" points="-120.204,-23 104.204,-23 "/>
<text text-anchor="start" x="-112.204" y="-7.8" font-family="Times,serif" font-size="14.00">twitter</text>
<polyline fill="none" stroke="black" points="-120.204,-1 104.204,-1 "/>
<polyline fill="none" stroke="black" points="-120.204,23 104.204,23 "/>
<text text-anchor="start" x="-112.204" y="38.2" font-family="Times,serif" font-size="14.00">_layout</text>
<text text-anchor="start" x="-112.204" y="52.2" font-family="Times,serif" font-size="14.00">auth</text>
</g>
<!-- UsersController -->
<g id="node7" class="node"><title>UsersController</title>
<path fill="none" stroke="black" d="M-197.714,209C-197.714,209 -116.286,209 -116.286,209 -110.286,209 -104.286,203 -104.286,197 -104.286,197 -104.286,103 -104.286,103 -104.286,97 -110.286,91 -116.286,91 -116.286,91 -197.714,91 -197.714,91 -203.714,91 -209.714,97 -209.714,103 -209.714,103 -209.714,197 -209.714,197 -209.714,203 -203.714,209 -197.714,209"/>
<text text-anchor="middle" x="-157" y="106.2" font-family="Times,serif" font-size="14.00">UsersController</text>
<polyline fill="none" stroke="black" points="-209.714,113 -104.286,113 "/>
<text text-anchor="start" x="-201.714" y="128.2" font-family="Times,serif" font-size="14.00">finish_signup</text>
<polyline fill="none" stroke="black" points="-209.714,135 -104.286,135 "/>
<polyline fill="none" stroke="black" points="-209.714,159 -104.286,159 "/>
<text text-anchor="start" x="-201.714" y="174.2" font-family="Times,serif" font-size="14.00">_layout</text>
<text text-anchor="start" x="-201.714" y="188.2" font-family="Times,serif" font-size="14.00">find_user</text>
<text text-anchor="start" x="-201.714" y="202.2" font-family="Times,serif" font-size="14.00">user_params</text>
</g>
</g>
</svg>
