<?xml version="1.0" encoding="UTF-8" standalone="no"?>
<!DOCTYPE svg PUBLIC "-//W3C//DTD SVG 1.1//EN"
 "http://www.w3.org/Graphics/SVG/1.1/DTD/svg11.dtd">
<!-- Generated by graphviz version 2.38.0 (20140413.2041)
 -->
<!-- Title: models_diagram Pages: 1 -->
<svg width="560pt" height="470pt"
 viewBox="0.00 0.00 560.19 470.00" xmlns="http://www.w3.org/2000/svg" xmlns:xlink="http://www.w3.org/1999/xlink">
<g id="graph0" class="graph" transform="scale(1 1) rotate(0) translate(4 466)">
<title>models_diagram</title>
<polygon fill="white" stroke="none" points="-4,4 -4,-466 556.193,-466 556.193,4 -4,4"/>
<!-- _diagram_info -->
<g id="node1" class="node"><title>_diagram_info</title>
<text text-anchor="start" x="8" y="-349.6" font-family="Times,serif" font-size="13.00">Models diagram</text>
<text text-anchor="start" x="8" y="-336.6" font-family="Times,serif" font-size="13.00">Date: Jan 10 2015 &#45; 00:34</text>
<text text-anchor="start" x="8" y="-323.6" font-family="Times,serif" font-size="13.00">Migration version: 20141229193757</text>
<text text-anchor="start" x="8" y="-310.6" font-family="Times,serif" font-size="13.00">Generated by RailRoady 1.3.0</text>
<text text-anchor="start" x="8" y="-297.6" font-family="Times,serif" font-size="13.00">http://railroady.prestonlee.com</text>
</g>
<!-- Ability -->
<g id="node2" class="node"><title>Ability</title>
<polygon fill="none" stroke="black" points="225.853,-305.5 225.853,-349.5 281.522,-349.5 281.522,-305.5 225.853,-305.5"/>
<text text-anchor="middle" x="253.688" y="-334.3" font-family="Times,serif" font-size="14.00">Ability</text>
<polyline fill="none" stroke="black" points="225.853,-327.5 281.522,-327.5 "/>
<text text-anchor="middle" x="253.688" y="-312.3" font-family="Times,serif" font-size="14.00"> </text>
</g>
<!-- Authentication -->
<g id="node3" class="node"><title>Authentication</title>
<path fill="none" stroke="black" d="M244.3,-7.5C244.3,-7.5 389.076,-7.5 389.076,-7.5 395.076,-7.5 401.076,-13.5 401.076,-19.5 401.076,-19.5 401.076,-137.5 401.076,-137.5 401.076,-143.5 395.076,-149.5 389.076,-149.5 389.076,-149.5 244.3,-149.5 244.3,-149.5 238.3,-149.5 232.3,-143.5 232.3,-137.5 232.3,-137.5 232.3,-19.5 232.3,-19.5 232.3,-13.5 238.3,-7.5 244.3,-7.5"/>
<text text-anchor="middle" x="316.688" y="-134.3" font-family="Times,serif" font-size="14.00">Authentication</text>
<polyline fill="none" stroke="black" points="232.3,-127.5 401.076,-127.5 "/>
<text text-anchor="start" x="240.3" y="-112.3" font-family="Times,serif" font-size="14.00">id :integer</text>
<text text-anchor="start" x="240.3" y="-98.3" font-family="Times,serif" font-size="14.00">user_id :integer</text>
<text text-anchor="start" x="240.3" y="-84.3" font-family="Times,serif" font-size="14.00">provider :string</text>
<text text-anchor="start" x="240.3" y="-70.3" font-family="Times,serif" font-size="14.00">uid :string</text>
<text text-anchor="start" x="240.3" y="-56.3" font-family="Times,serif" font-size="14.00">access_token :string</text>
<text text-anchor="start" x="240.3" y="-42.3" font-family="Times,serif" font-size="14.00">access_token_secret :string</text>
<text text-anchor="start" x="240.3" y="-28.3" font-family="Times,serif" font-size="14.00">created_at :datetime</text>
<text text-anchor="start" x="240.3" y="-14.3" font-family="Times,serif" font-size="14.00">updated_at :datetime</text>
</g>
<!-- Follower -->
<g id="node4" class="node"><title>Follower</title>
<path fill="none" stroke="black" d="M431.182,-0.5C431.182,-0.5 540.193,-0.5 540.193,-0.5 546.193,-0.5 552.193,-6.5 552.193,-12.5 552.193,-12.5 552.193,-144.5 552.193,-144.5 552.193,-150.5 546.193,-156.5 540.193,-156.5 540.193,-156.5 431.182,-156.5 431.182,-156.5 425.182,-156.5 419.182,-150.5 419.182,-144.5 419.182,-144.5 419.182,-12.5 419.182,-12.5 419.182,-6.5 425.182,-0.5 431.182,-0.5"/>
<text text-anchor="middle" x="485.688" y="-141.3" font-family="Times,serif" font-size="14.00">Follower</text>
<polyline fill="none" stroke="black" points="419.182,-134.5 552.193,-134.5 "/>
<text text-anchor="start" x="427.182" y="-119.3" font-family="Times,serif" font-size="14.00">id :integer</text>
<text text-anchor="start" x="427.182" y="-105.3" font-family="Times,serif" font-size="14.00">name :string</text>
<text text-anchor="start" x="427.182" y="-91.3" font-family="Times,serif" font-size="14.00">username :string</text>
<text text-anchor="start" x="427.182" y="-77.3" font-family="Times,serif" font-size="14.00">location :string</text>
<text text-anchor="start" x="427.182" y="-63.3" font-family="Times,serif" font-size="14.00">latitude :float</text>
<text text-anchor="start" x="427.182" y="-49.3" font-family="Times,serif" font-size="14.00">longitude :float</text>
<text text-anchor="start" x="427.182" y="-35.3" font-family="Times,serif" font-size="14.00">user_id :integer</text>
<text text-anchor="start" x="427.182" y="-21.3" font-family="Times,serif" font-size="14.00">created_at :datetime</text>
<text text-anchor="start" x="427.182" y="-7.3" font-family="Times,serif" font-size="14.00">updated_at :datetime</text>
</g>
<!-- User -->
<g id="node5" class="node"><title>User</title>
<path fill="none" stroke="black" d="M311.41,-193.5C311.41,-193.5 491.966,-193.5 491.966,-193.5 497.966,-193.5 503.966,-199.5 503.966,-205.5 503.966,-205.5 503.966,-449.5 503.966,-449.5 503.966,-455.5 497.966,-461.5 491.966,-461.5 491.966,-461.5 311.41,-461.5 311.41,-461.5 305.41,-461.5 299.41,-455.5 299.41,-449.5 299.41,-449.5 299.41,-205.5 299.41,-205.5 299.41,-199.5 305.41,-193.5 311.41,-193.5"/>
<text text-anchor="middle" x="401.688" y="-446.3" font-family="Times,serif" font-size="14.00">User</text>
<polyline fill="none" stroke="black" points="299.41,-439.5 503.966,-439.5 "/>
<text text-anchor="start" x="307.41" y="-424.3" font-family="Times,serif" font-size="14.00">id :integer</text>
<text text-anchor="start" x="307.41" y="-410.3" font-family="Times,serif" font-size="14.00">email :string</text>
<text text-anchor="start" x="307.41" y="-396.3" font-family="Times,serif" font-size="14.00">encrypted_password :string</text>
<text text-anchor="start" x="307.41" y="-382.3" font-family="Times,serif" font-size="14.00">reset_password_token :string</text>
<text text-anchor="start" x="307.41" y="-368.3" font-family="Times,serif" font-size="14.00">reset_password_sent_at :datetime</text>
<text text-anchor="start" x="307.41" y="-354.3" font-family="Times,serif" font-size="14.00">remember_created_at :datetime</text>
<text text-anchor="start" x="307.41" y="-340.3" font-family="Times,serif" font-size="14.00">sign_in_count :integer</text>
<text text-anchor="start" x="307.41" y="-326.3" font-family="Times,serif" font-size="14.00">current_sign_in_at :datetime</text>
<text text-anchor="start" x="307.41" y="-312.3" font-family="Times,serif" font-size="14.00">last_sign_in_at :datetime</text>
<text text-anchor="start" x="307.41" y="-298.3" font-family="Times,serif" font-size="14.00">current_sign_in_ip :inet</text>
<text text-anchor="start" x="307.41" y="-284.3" font-family="Times,serif" font-size="14.00">last_sign_in_ip :inet</text>
<text text-anchor="start" x="307.41" y="-270.3" font-family="Times,serif" font-size="14.00">avatar :string</text>
<text text-anchor="start" x="307.41" y="-256.3" font-family="Times,serif" font-size="14.00">twitter_username :string</text>
<text text-anchor="start" x="307.41" y="-242.3" font-family="Times,serif" font-size="14.00">name :string</text>
<text text-anchor="start" x="307.41" y="-228.3" font-family="Times,serif" font-size="14.00">created_at :datetime</text>
<text text-anchor="start" x="307.41" y="-214.3" font-family="Times,serif" font-size="14.00">updated_at :datetime</text>
<text text-anchor="start" x="307.41" y="-200.3" font-family="Times,serif" font-size="14.00">slug :string</text>
</g>
<!-- User&#45;&gt;Authentication -->
<g id="edge2" class="edge"><title>User&#45;&gt;Authentication</title>
<path fill="none" stroke="#645958" d="M353.168,-185.508C350.074,-176.515 347.023,-167.649 344.082,-159.106"/>
<ellipse fill="none" stroke="#645958" cx="354.527" cy="-189.458" rx="4.00001" ry="4.00001"/>
<polygon fill="#645958" stroke="#645958" points="344.068,-159.062 345.069,-148.142 342.441,-154.335 340.814,-149.607 340.814,-149.607 340.814,-149.607 342.441,-154.335 336.558,-151.071 344.068,-159.062 344.068,-159.062"/>
</g>
<!-- User&#45;&gt;Follower -->
<g id="edge1" class="edge"><title>User&#45;&gt;Follower</title>
<path fill="none" stroke="#79908a" d="M449.597,-185.624C451.812,-179.111 454.005,-172.663 456.15,-166.355"/>
<ellipse fill="none" stroke="#79908a" cx="448.295" cy="-189.453" rx="4.00001" ry="4.00001"/>
<polygon fill="#79908a" stroke="#79908a" points="456.258,-166.036 463.738,-158.018 457.868,-161.303 459.478,-156.569 459.478,-156.569 459.478,-156.569 457.868,-161.303 455.218,-155.12 456.258,-166.036 456.258,-166.036"/>
</g>
</g>
</svg>
