<?xml version="1.0" encoding="UTF-8" standalone="no"?>
<!DOCTYPE svg PUBLIC "-//W3C//DTD SVG 1.1//EN"
 "http://www.w3.org/Graphics/SVG/1.1/DTD/svg11.dtd">
<!-- Generated by graphviz version 2.38.0 (20140413.2041)
 -->
<!-- Title: models_diagram Pages: 1 -->
<svg width="438pt" height="153pt"
 viewBox="0.00 0.00 437.73 153.00" xmlns="http://www.w3.org/2000/svg" xmlns:xlink="http://www.w3.org/1999/xlink">
<g id="graph0" class="graph" transform="scale(1 1) rotate(0) translate(4 149)">
<title>models_diagram</title>
<polygon fill="white" stroke="none" points="-4,4 -4,-149 433.727,-149 433.727,4 -4,4"/>
<!-- _diagram_info -->
<g id="node1" class="node"><title>_diagram_info</title>
<text text-anchor="start" x="8" y="-130.6" font-family="Times,serif" font-size="13.00">Models diagram</text>
<text text-anchor="start" x="8" y="-117.6" font-family="Times,serif" font-size="13.00">Date: Jan 10 2015 &#45; 00:34</text>
<text text-anchor="start" x="8" y="-104.6" font-family="Times,serif" font-size="13.00">Migration version: 20141229193757</text>
<text text-anchor="start" x="8" y="-91.6" font-family="Times,serif" font-size="13.00">Generated by RailRoady 1.3.0</text>
<text text-anchor="start" x="8" y="-78.6" font-family="Times,serif" font-size="13.00">http://railroady.prestonlee.com</text>
</g>
<!-- Ability -->
<g id="node2" class="node"><title>Ability</title>
<polygon fill="none" stroke="black" points="281.358,-126.5 226.018,-126.5 226.018,-90.5 281.358,-90.5 281.358,-126.5"/>
<text text-anchor="middle" x="253.688" y="-104.3" font-family="Times,serif" font-size="14.00">Ability</text>
</g>
<!-- Authentication -->
<g id="node3" class="node"><title>Authentication</title>
<ellipse fill="none" stroke="black" cx="264.688" cy="-18" rx="62.8252" ry="18"/>
<text text-anchor="middle" x="264.688" y="-13.8" font-family="Times,serif" font-size="14.00">Authentication</text>
</g>
<!-- Follower -->
<g id="node4" class="node"><title>Follower</title>
<ellipse fill="none" stroke="black" cx="387.688" cy="-18" rx="42.0784" ry="18"/>
<text text-anchor="middle" x="387.688" y="-13.8" font-family="Times,serif" font-size="14.00">Follower</text>
</g>
<!-- User -->
<g id="node5" class="node"><title>User</title>
<ellipse fill="none" stroke="black" cx="326.688" cy="-108.5" rx="27" ry="18"/>
<text text-anchor="middle" x="326.688" y="-104.3" font-family="Times,serif" font-size="14.00">User</text>
</g>
<!-- User&#45;&gt;Authentication -->
<g id="edge2" class="edge"><title>User&#45;&gt;Authentication</title>
<path fill="none" stroke="#251fb8" d="M310.937,-85.0174C302.236,-72.5974 291.401,-57.1306 282.405,-44.2904"/>
<ellipse fill="none" stroke="#251fb8" cx="313.308" cy="-88.4019" rx="4.00002" ry="4.00002"/>
<polygon fill="#251fb8" stroke="#251fb8" points="282.258,-44.0805 280.206,-33.3084 279.389,-39.9855 276.521,-35.8904 276.521,-35.8904 276.521,-35.8904 279.389,-39.9855 272.835,-38.4724 282.258,-44.0805 282.258,-44.0805"/>
</g>
<!-- User&#45;&gt;Follower -->
<g id="edge1" class="edge"><title>User&#45;&gt;Follower</title>
<path fill="none" stroke="#99e790" d="M342.215,-84.9729C350.835,-72.467 361.577,-56.8825 370.455,-44.0011"/>
<ellipse fill="none" stroke="#99e790" cx="339.863" cy="-88.3845" rx="4.00002" ry="4.00002"/>
<polygon fill="#99e790" stroke="#99e790" points="370.58,-43.8198 379.961,-38.14 373.418,-39.7029 376.255,-35.5861 376.255,-35.5861 376.255,-35.5861 373.418,-39.7029 372.55,-33.0323 370.58,-43.8198 370.58,-43.8198"/>
</g>
</g>
</svg>
